<svg width="46" height="47" viewBox="0 0 46 47" fill="none" xmlns="http://www.w3.org/2000/svg">
<path d="M25.1464 43.2933C18.4452 47.9727 9.11173 45.4719 5.14014 38.4569C0.68535 30.5901 1.04564 19.4001 5.42838 11.5968C9.74753 3.90367 19.2166 -0.873147 27.5963 3.3358C31.3433 5.21775 34.3485 8.33305 37.0061 11.5163C40.1851 15.3225 43.3767 19.8155 43.949 24.8849C45.1146 35.2653 33.611 43.7214 24.2478 44.2554C23.434 44.3021 23.4298 45.5737 24.2478 45.527C33.3439 45.0099 43.4997 38.0374 45.1103 28.581C45.9623 23.5922 43.7624 18.7093 41.0158 14.6741C38.1802 10.5118 34.6748 6.40033 30.4786 3.55622C22.4888 -1.8565 12.3967 0.470521 6.45836 7.81181C0.142814 15.6236 -0.836302 27.6951 2.95302 36.8335C6.63638 45.7092 17.5084 50.1682 25.7907 44.391C26.4519 43.9248 25.8204 42.8228 25.1464 43.2933Z" fill="#FFFCE0"/>
<path d="M31.7417 36.4693C26.2018 40.7842 18.2417 44.9125 11.426 40.89C4.86039 37.0159 2.88095 28.4837 4.19916 21.4391C5.44532 14.8057 9.71361 6.25202 17.2287 5.40006C25.0913 4.50995 30.9406 11.2368 34.2764 17.5014C36.2982 21.2992 38.1081 25.7285 37.1163 30.0985C36.5992 32.3662 35.3657 34.1973 33.3566 35.3842C31.9706 36.2064 30.6058 36.8678 29.5546 38.1266C29.0332 38.7497 29.9276 39.6524 30.4532 39.0251C31.7926 37.4229 33.7593 36.8762 35.3318 35.5835C36.6628 34.4899 37.5486 32.9978 38.0785 31.3744C39.3839 27.3774 38.3073 23.16 36.6458 19.4428C33.5177 12.4575 28.0329 4.94238 19.7973 4.11585C11.2268 3.25541 5.70388 11.2834 3.5761 18.6035C1.39321 26.1059 2.53763 35.1298 8.7133 40.479C16.1733 46.9429 25.9136 42.6067 32.6488 37.3636C33.2846 36.8676 32.3817 35.9733 31.7417 36.4693Z" fill="#FFFCE0"/>
<path d="M13.0663 23.198C15.7367 20.1419 18.4112 17.0858 21.0816 14.034C21.6199 13.4194 20.7213 12.5166 20.183 13.1354C17.5126 16.1914 14.8381 19.2475 12.1677 22.2993C11.6294 22.9139 12.5238 23.8168 13.0663 23.198Z" fill="#FFFCE0"/>
<path d="M13.6554 22.3885C14.4777 25.2538 15.3 28.1233 16.1222 30.9887C16.508 30.8233 16.8979 30.6624 17.2836 30.4971C16.6606 29.2806 15.2788 28.8397 14.0496 29.4882C12.4262 30.3528 12.1973 32.6206 12.477 34.244C12.7356 35.7317 13.6639 37.1304 15.3635 36.5963C17.3769 35.9605 17.4616 33.4429 17.4193 31.7263C17.4023 31.0439 16.2876 30.8235 16.1689 31.5568C16.0417 32.3494 15.9061 33.1419 15.7323 33.9261C15.6645 34.2397 15.3805 36.0496 15.1219 36.2488C14.6048 36.1641 14.0877 36.0793 13.5706 35.9945C12.7695 34.8331 13.1849 33.9727 14.8083 33.4132C14.6218 33.0275 12.8585 32.2985 14.4268 31.7008C14.1894 31.6033 13.9478 31.5059 13.7105 31.4084C14.1386 32.0866 14.2488 32.8241 14.0411 33.6252C14.4268 33.5743 14.8168 33.5233 15.2025 33.4724C15.3508 32.8409 15.4949 32.2093 15.6433 31.5735C16.3257 31.1242 15.6857 30.0223 15.0033 30.4758C13.719 31.3235 13.4265 32.7647 14.1047 34.1126C14.342 34.5873 15.1643 34.4899 15.266 33.96C15.4949 32.7902 15.372 31.8237 14.8083 30.7641C14.6854 30.5352 14.342 30.3742 14.092 30.4717C12.3414 31.1371 11.9642 34.2017 13.9097 34.9392C16.0841 35.7615 16.9742 32.112 14.9651 31.3448C11.6717 30.0817 11.5149 35.1468 12.6339 36.8846C13.2315 37.8129 14.4056 38.7199 15.5034 37.9824C17.0081 36.9736 17.148 33.4513 17.3938 31.8873C16.9784 31.8322 16.5631 31.7729 16.1434 31.7178C16.1646 32.1628 16.1646 32.6079 16.1477 33.0529C16.2876 34.4517 15.5119 34.9518 13.8249 34.5449C13.685 33.9557 13.6257 33.3624 13.6511 32.7605C13.5494 31.082 14.3929 30.5352 16.1816 31.1286C16.5122 31.7728 17.5422 31.3235 17.343 30.6368C16.5207 27.7715 15.6984 24.9019 14.8761 22.0366C14.6557 21.2652 13.4265 21.6001 13.6554 22.3885Z" fill="#FFFCE0"/>
<path d="M20.2377 14.2926C20.9667 17.8911 22.0688 21.3415 23.5438 24.6985C23.832 25.3555 24.9256 24.8892 24.7052 24.2067C24.3195 23.0157 23.0988 22.4435 21.9332 23.0496C20.3776 23.8549 20.2462 26.4575 20.4581 27.958C20.6065 29.0091 21.1363 30.3612 22.3867 30.1408C24.2856 29.806 25.1587 26.9916 25.2223 25.4233C24.8069 25.4784 24.3915 25.5377 23.9719 25.5928C24.3492 27.0805 22.1408 26.8092 22.0857 25.4529C22.0518 24.6433 22.5266 23.9144 23.12 23.3973C22.819 23.3973 22.5223 23.3973 22.2214 23.3973C23.3488 24.5121 23.1666 26.5973 21.7212 27.3687C22.0094 27.445 22.3019 27.5213 22.5901 27.5976C21.8611 26.1184 22.0645 24.5755 23.0437 23.287C22.7554 23.3633 22.463 23.4396 22.1747 23.5159C23.2132 23.7745 23.2937 24.1941 22.4121 24.779C21.6237 25.6988 21.6025 25.7708 22.3485 24.9909C22.1112 24.8934 21.8696 24.796 21.6322 24.6985C22.0349 25.4021 22.1536 26.1312 21.9925 26.8857C21.9077 27.6995 23.1793 27.691 23.2641 26.8857C23.3785 25.8091 23.209 25.0163 22.73 24.0583C22.6071 23.8125 22.268 23.6939 22.0137 23.7659C19.9283 24.3678 19.9876 27.8775 22.3231 28.0258C25.7945 28.2463 25.1969 23.5541 22.8233 22.4182C22.4842 22.2571 22.179 22.3546 21.9543 22.6471C20.67 24.3256 20.581 26.3684 21.5008 28.2419C21.6576 28.5598 22.0857 28.6234 22.3697 28.4708C24.5399 27.3137 24.8366 24.1898 23.1284 22.5028C22.8741 22.2485 22.4884 22.2739 22.2298 22.5028C20.8141 23.7405 19.8308 26.9026 22.0179 27.9834C23.8024 28.8693 25.6589 27.0298 25.2096 25.2623C25.0316 24.5502 23.9889 24.7282 23.9592 25.4318C23.9295 26.165 22.7851 29.7849 21.8187 28.3353C21.6068 28.0174 21.6916 27.2332 21.6958 26.8433C21.6958 26.4448 21.7339 26.0505 21.8187 25.6648C21.7975 24.8171 22.3528 24.4442 23.4802 24.5544C23.866 24.3891 24.2559 24.228 24.6416 24.0627C23.2132 20.8074 22.1705 17.442 21.4669 13.9579C21.3016 13.1526 20.0766 13.4915 20.2377 14.2926Z" fill="#FFFCE0"/>
</svg>
