<svg width="43" height="49" viewBox="0 0 43 49" fill="none" xmlns="http://www.w3.org/2000/svg">
<path d="M0.761601 9.16803C-0.471837 19.1415 0.553904 29.3567 3.8897 38.8512C4.64417 41.0002 5.50038 43.1364 6.50493 45.1837C7.28908 46.7816 8.27243 48.2778 10.1586 48.5787C11.9558 48.8627 13.7403 47.9049 15.317 47.1885C18.0043 45.9678 20.6873 44.7343 23.3746 43.5093C28.533 41.1527 33.8694 39.0079 38.9049 36.4096C43.0842 34.2522 42.0246 30.0729 41.4354 26.0886C40.6767 20.9302 39.4136 15.8481 37.6673 10.9355C36.8874 8.73989 36.0057 6.57394 35.0351 4.45463C34.3018 2.85667 33.6024 0.90695 31.8095 0.258441C29.8428 -0.453647 27.1046 0.474726 25.1845 1.01303C22.599 1.73783 20.0982 2.73811 17.6016 3.72571C12.4432 5.76872 7.20006 7.82009 1.54574 7.30721C0.731927 7.23516 0.736165 8.50674 1.54574 8.5788C9.38719 9.29089 16.3258 5.24311 23.5272 2.85253C25.4516 2.21249 27.4479 1.62749 29.4698 1.3986C32.5555 1.05104 33.5473 4.15804 34.5561 6.48081C36.3491 10.6177 37.7732 14.9199 38.8286 19.3026C39.3373 21.4092 39.7569 23.5328 40.0918 25.669C40.4181 27.746 41.3167 30.9927 40.6004 33.0697C39.8332 35.3034 36.1753 36.2655 34.234 37.1514C32.0596 38.1432 29.8852 39.1394 27.7107 40.1313C23.2348 42.1743 18.78 44.2638 14.2828 46.2644C12.9773 46.8451 11.6421 47.5444 10.1883 47.1757C8.85312 46.8408 8.31482 45.9806 7.72141 44.8022C6.6448 42.666 5.76317 40.4193 4.98326 38.1601C1.77887 28.8564 0.82094 18.9211 2.02471 9.16803C2.13491 8.35421 0.859089 8.36269 0.761601 9.16803Z" fill="#FFFCE0"/>
<path d="M5.76744 15.7083C6.11077 22.4858 6.87796 30.0177 9.40418 36.3757C11.799 42.3987 18.2841 37.7532 22.0141 35.8204C25.0998 34.2224 28.5585 32.8535 31.4408 30.9207C33.4329 29.5856 32.742 26.6226 32.6149 24.5711C32.4029 21.1632 31.9112 17.7682 31.1483 14.4367C30.7075 12.5251 30.22 9.74447 28.2364 8.76959C25.5618 7.45562 21.9547 10.4099 19.7591 11.5797C15.9147 13.6228 12.0703 15.6658 8.22584 17.7088C7.50104 18.0945 8.14531 19.1924 8.86587 18.8067C11.9643 17.1579 15.067 15.509 18.1654 13.8644C19.7761 13.0082 21.391 12.1521 23.0017 11.2917C24.926 10.2701 27.3802 8.69331 28.8298 11.2238C30.3641 13.8983 30.6439 17.9504 31.0084 20.9556C31.2034 22.5578 31.3348 24.1684 31.4069 25.7791C31.4831 27.6144 31.8519 29.2719 30.0123 30.2425C26.8927 31.8871 23.7519 33.4892 20.6196 35.1126C17.9662 36.4859 12.9985 40.2244 10.8199 36.4775C10.0188 35.0957 9.75174 33.201 9.37027 31.6666C8.97608 30.0856 8.62851 28.4919 8.32757 26.8897C7.63667 23.1936 7.22553 19.4636 7.03479 15.7124C7.00088 14.8943 5.7293 14.8902 5.76744 15.7083Z" fill="#FFFCE0"/>
<path d="M21.1874 27.0548C20.7339 29.2165 18.1229 28.7079 17.237 27.1693C16.3978 25.7112 16.313 23.3078 17.0802 21.7946C17.8898 20.2009 20.149 19.5185 21.5774 20.7774C22.921 21.96 22.8278 24.2065 21.7088 25.4823C21.1705 26.0969 22.0691 26.9996 22.6074 26.3808C24.2392 24.5158 24.3155 21.4005 22.3064 19.7432C20.2888 18.0817 17.148 18.8828 15.9824 21.1547C14.7786 23.5029 15.0414 27.5211 17.3133 29.1741C19.1317 30.4966 21.9377 29.67 22.4166 27.3938C22.5819 26.597 21.357 26.2537 21.1874 27.0548Z" fill="#FFFCE0"/>
<path d="M26.9435 13.7032C26.8968 14.2203 26.2441 14.8009 25.71 14.572C25.8075 14.6991 25.905 14.8263 26.0025 14.9534C25.905 14.4151 26.2102 13.754 26.74 13.5548C26.5747 13.5336 26.4136 13.5124 26.2483 13.4912C26.5196 13.6353 26.562 13.8938 26.4603 14.1651C26.172 14.9323 27.4012 15.2628 27.6852 14.5041C27.8548 14.0506 27.8082 13.5379 27.592 13.1098C27.3758 12.6902 26.9138 12.2195 26.4009 12.3297C25.4769 12.5247 24.8411 13.5802 24.7352 14.4449C24.6716 14.9578 24.7012 15.5299 25.2438 15.7461C25.6719 15.9156 26.1551 15.9199 26.5917 15.78C27.5199 15.4791 28.1345 14.6652 28.2151 13.7073C28.2829 12.8892 27.0113 12.8936 26.9435 13.7032Z" fill="#FFFCE0"/>
</svg>
