<svg width="39" height="42" viewBox="0 0 39 42" fill="none" xmlns="http://www.w3.org/2000/svg">
<path d="M1.0953 8.97957C0.942709 16.1301 1.45133 23.2722 2.67205 30.3211C3.18916 33.3008 3.54523 36.8018 4.84225 39.5612C5.8468 41.6974 7.58886 42.3036 9.85652 41.8204C17.1469 40.2733 24.3568 37.9082 31.554 35.9627C33.2495 35.5049 35.0042 35.1318 36.6658 34.5723C37.4796 34.2968 38.2086 33.9324 38.6028 33.1356C39.6922 30.9357 38.2426 27.3668 37.7975 25.1712C36.1233 16.9483 34.0845 8.80159 31.7151 0.748209C31.6261 0.43879 31.2616 0.180317 30.9309 0.303237C21.2415 3.91454 11.2002 6.44912 0.951175 7.81395C0.150076 7.91992 0.141599 9.1915 0.951175 9.08554C11.3231 7.70799 21.4661 5.18185 31.27 1.53239C31.0072 1.38404 30.7487 1.23557 30.4859 1.08722C32.6985 8.61924 34.627 16.232 36.2377 23.9166C36.6276 25.7731 37.0176 27.6338 37.3524 29.4988C37.4923 30.2745 37.8399 31.44 37.5856 32.22C37.1702 33.4958 35.5298 33.5679 34.4447 33.8604C30.6766 34.8776 26.9085 35.8991 23.1404 36.9164C19.3722 37.9336 15.6041 38.9551 11.836 39.9724C10.8908 40.2267 9.22498 40.9642 8.25433 40.7522C6.91917 40.4598 6.1011 39.4679 5.69843 38.2641C5.14741 36.6238 4.84646 34.8733 4.4989 33.1821C2.86703 25.2178 2.18886 17.0965 2.36264 8.97109C2.38384 8.16151 1.11225 8.16152 1.0953 8.97957Z" fill="#FFFCE0"/>
<path d="M2.4048 9.36129C7.27074 14.7231 12.675 19.5256 18.6048 23.6795C18.9778 23.9423 19.3932 23.6414 19.5373 23.298C22.6823 15.7957 26.5988 8.66199 31.2867 2.01159C31.7572 1.34189 30.6552 0.706199 30.1889 1.37166C25.4332 8.11531 21.4998 15.3547 18.3081 22.9588C18.6175 22.8317 18.9312 22.7045 19.2406 22.5774C13.3998 18.4829 8.09302 13.7356 3.29914 8.45852C2.75236 7.85663 1.85802 8.75941 2.4048 9.36129Z" fill="#FFFCE0"/>
</svg>
