<svg width="48" height="48" viewBox="0 0 48 48" fill="none" xmlns="http://www.w3.org/2000/svg">
<path d="M33.5368 41.455C26.827 47.673 15.4548 47.2916 9.28765 40.5183C5.93066 36.8264 4.18858 31.8757 2.95938 27.1242C1.70051 22.2667 1.60726 17.4856 3.91307 12.9333C7.96942 4.9223 16.9172 0.353169 25.7674 1.37891C34.9482 2.44281 43.8366 9.0295 45.6423 18.418C47.715 29.1714 38.9368 38.5008 30.2519 43.2947C29.5355 43.6889 30.1756 44.7866 30.8919 44.3924C39.2801 39.7638 47.4479 31.3333 47.1978 21.1055C46.9478 10.8183 38.212 2.77762 28.6327 0.594729C19.2399 -1.54577 9.31307 2.18416 3.97241 10.2926C1.29784 14.3532 0.276334 19.0624 0.975706 23.8647C1.75561 29.2223 3.67995 35.0885 6.85891 39.5221C13.166 48.313 26.4159 49.7754 34.4227 42.3536C35.0415 41.7984 34.1387 40.8997 33.5368 41.455Z" fill="#FFFCE0"/>
<path d="M17.0231 13.5733C24.3093 11.8143 32.617 15.3705 35.6349 22.3939C35.957 23.1442 37.0548 22.4955 36.7327 21.7538C33.4901 14.209 24.4703 10.4706 16.684 12.3483C15.8914 12.5391 16.2262 13.7641 17.0231 13.5733Z" fill="#FFFCE0"/>
<path d="M18.2437 20.8389C22.9571 20.9745 27.3907 22.6487 30.9002 25.8192C31.5064 26.366 32.4092 25.4716 31.7988 24.9206C28.0349 21.5212 23.3004 19.7114 18.2395 19.5673C17.4257 19.5418 17.4257 20.8134 18.2437 20.8389Z" fill="#FFFCE0"/>
<path d="M18.2352 28.4802C20.736 28.3997 23.1605 29.3746 24.7034 31.3922C25.195 32.0322 26.2971 31.4006 25.8012 30.7521C23.9828 28.3742 21.2235 27.1153 18.2352 27.2128C17.4214 27.234 17.4172 28.5057 18.2352 28.4802Z" fill="#FFFCE0"/>
</svg>
