<svg width="48" height="46" viewBox="0 0 48 46" fill="none" xmlns="http://www.w3.org/2000/svg">
<path d="M23.2998 15.4085C25.3683 15.4254 24.9232 12.984 24.4315 11.6827C22.8972 7.61365 24.0501 2.47207 28.8736 1.48024C30.7089 1.103 32.9173 1.4548 34.3372 2.75182C35.4223 3.74366 35.8673 5.21024 36.8719 6.26565C39.4829 9.01228 42.0515 5.39247 44.8532 6.33768C44.726 6.02826 44.5989 5.71472 44.4717 5.4053C43.4163 7.04141 42.0515 8.69869 41.2377 10.4662C40.9155 11.1698 40.6994 11.9412 41.0808 12.6745C42.0049 14.459 44.3191 13.5647 45.7857 14.2429C47.1972 14.8914 45.472 14.8362 44.7727 15.0227C44.3319 15.1414 43.9207 15.2473 43.5096 15.4592C42.3694 16.0526 41.5259 17.1419 41.0257 18.3033C39.8432 21.0414 40.4323 24.2798 39.7838 27.1578C36.5455 41.5183 19.8708 47.9737 7.14645 41.5946C7.09559 41.9803 7.04472 42.3704 6.99386 42.7561C11.1943 41.1963 14.653 38.4114 16.9292 34.5373C17.2344 34.016 16.73 33.5242 16.2129 33.6047C9.35477 34.6432 2.19998 29.8156 1.23358 22.8261C0.970784 23.0846 0.712228 23.3474 0.449434 23.6059C4.1879 24.212 7.81192 25.1826 11.3512 26.5305C12.0548 26.7975 12.4151 25.7465 11.8428 25.3692C7.91788 22.7879 4.88303 19.1807 3.13672 14.8064C2.8273 15.0438 2.51364 15.2856 2.20422 15.5229C4.76011 16.8157 7.32023 18.1085 9.87612 19.4012C10.4399 19.6852 11.0545 19.1086 10.745 18.5322C9.13013 15.527 7.51097 12.5177 5.89606 9.5125C5.7138 9.8304 5.53154 10.1482 5.34504 10.4703C11.3724 10.5678 15.9755 18.4644 22.3419 15.2303C23.0709 14.8615 22.4309 13.7638 21.7019 14.1326C18.4297 15.7941 15.0811 13.5773 12.3684 11.8353C10.1771 10.428 8.00689 9.24113 5.34928 9.19874C4.85336 9.19027 4.57785 9.7414 4.79826 10.1568C6.41317 13.1662 8.03232 16.1713 9.64724 19.1765C9.93546 18.8882 10.2279 18.5959 10.5162 18.3076C7.96027 17.0149 5.40014 15.7221 2.84425 14.4293C2.40344 14.2047 1.68711 14.5904 1.91176 15.1456C3.78523 19.8505 6.97691 23.6906 11.2028 26.4711C11.3681 26.0854 11.5292 25.6956 11.6945 25.3098C8.15524 23.962 4.53122 22.9914 0.792762 22.3852C0.279889 22.3005 -0.0592007 22.6648 0.00861722 23.1692C1.07675 30.9005 9.07926 35.9699 16.5519 34.8339C16.3146 34.5245 16.073 34.211 15.8356 33.9015C13.7375 37.4747 10.5416 40.0941 6.66325 41.5352C6.19276 41.709 5.98083 42.4296 6.51066 42.6967C18.0863 48.5036 32.9554 44.5532 39.0463 32.8249C40.3264 30.3623 41.1529 27.6792 41.4284 24.9156C41.6446 22.7708 41.3309 20.3846 42.3779 18.4136C43.4375 16.4172 45.01 16.6545 46.7394 15.8195C48.2526 15.0862 48.1466 13.7215 46.5656 13.1493C45.5907 12.7975 43.7257 13.128 42.9331 12.56C41.2928 11.3859 44.9125 7.08371 45.578 6.05372C45.8111 5.6892 45.5695 5.24427 45.1965 5.12135C43.7681 4.63815 42.594 5.16789 41.2504 5.67229C39.9067 6.17668 38.7835 6.35046 37.6772 5.23994C37.0965 4.65925 36.7744 3.83265 36.3166 3.15871C34.7653 0.874097 32.1289 -0.155846 29.4119 0.128141C26.5424 0.429083 24.1391 2.21778 23.0498 4.89659C22.4903 6.2699 22.2995 7.79159 22.4606 9.26663C22.5157 9.77102 23.978 14.1538 23.3083 14.1495C22.4818 14.1283 22.4818 15.4 23.2998 15.4085Z" fill="#FFFCE0"/>
</svg>
